PathFileType	4	(X/Y/Z)	c:/Users/goper/Files/vsCode/490R/osim_files/A04/A04_Slow_04.trc
DataRate	CameraRate	NumFrames	NumMarkers	Units                	OrigDataRate	OrigDataStartFrame	OrigNumFrames
120.00	120.00	7	36	mm	120.0	425	1133
                Frame#	Time	LPSIS			LASIS			LTH1			LTH2			LTH3			LTH4			LLFE			LMFE			LSH1			LSH2			LSH3			LSH4			LLMAL			LMMAL			LCAL			LMTP5			LTOE			LMTP1			RPSIS			RASIS			RTH1			RTH2			RTH3			RTH4			RLFE			RMFE			RSH1			RSH2			RSH3			RSH4			RLMAL			RMMAL			RCAL			RMTP1			RTOE			RMTP5		
		X1	Y1	Z1	X2	Y2	Z2	X3	Y3	Z3	X4	Y4	Z4	X5	Y5	Z5	X6	Y6	Z6	X7	Y7	Z7	X8	Y8	Z8	X9	Y9	Z9	X10	Y10	Z10	X11	Y11	Z11	X12	Y12	Z12	X13	Y13	Z13	X14	Y14	Z14	X15	Y15	Z15	X16	Y16	Z16	X17	Y17	Z17	X18	Y18	Z18	X19	Y19	Z19	X20	Y20	Z20	X21	Y21	Z21	X22	Y22	Z22	X23	Y23	Z23	X24	Y24	Z24	X25	Y25	Z25	X26	Y26	Z26	X27	Y27	Z27	X28	Y28	Z28	X29	Y29	Z29	X30	Y30	Z30	X31	Y31	Z31	X32	Y32	Z32	X33	Y33	Z33	X34	Y34	Z34	X35	Y35	Z35	X36	Y36	Z36

425	3.53333	324.84796	1027.31360	359.11539	97.32764	986.94543	434.54874	106.39582	668.46252	442.61353	89.66880	628.37201	440.28525	49.34878	689.14807	438.54572	38.58615	646.45532	436.27484	32.46537	508.20966	425.98288	9.65422	520.63959	288.80206	20.33414	400.33942	424.18875	-2.21858	366.39703	422.10617	-35.10081	430.03372	417.22220	-49.77544	389.72308	414.84918	-107.44598	107.74799	376.90411	-136.16660	118.90578	295.55966	-63.44801	55.18587	316.27539	-253.94197	92.80625	425.50366	-301.55856	119.55409	368.11246	-293.07486	101.03101	321.94910	331.00769	1017.61401	253.68755	114.19804	988.35663	146.06720	319.99075	724.29968	130.50841	326.73331	682.83557	132.33775	262.50223	707.85712	114.74683	278.04050	663.85480	122.63122	321.63007	531.46167	152.18076	299.21490	525.67023	267.31696	457.72543	355.69101	172.11824	468.78928	310.93802	178.31528	402.52536	331.49036	162.11032	422.34003	290.88995	167.34219	514.42511	121.78746	176.32649	472.64484	121.34322	307.34769	585.38208	87.64178	262.50720	366.12744	50.10799	279.29373	346.54178	70.80772	229.88492	387.29373	48.14337	159.37828
426	3.54167	314.39124	1025.51489	360.44193	86.16460	985.29175	434.51361	98.02801	666.86328	443.41904	81.15413	626.64484	440.70319	41.03142	687.71143	439.25256	30.01122	644.66260	436.60358	25.37459	508.89896	426.73663	3.40192	520.93390	289.29199	14.57761	400.80255	424.90140	-7.46696	366.53152	422.67166	-41.21547	429.91449	417.60162	-55.12864	389.26349	415.10614	-109.16487	107.01577	376.91611	-137.54703	117.69969	295.31903	-64.04739	55.49776	316.39404	-255.56921	90.50762	424.82697	-303.07233	115.99780	367.20523	-294.58984	97.84373	321.37051	321.06342	1015.76227	255.00241	104.73203	986.53656	146.30278	311.39749	723.20673	131.13808	319.49710	682.32568	132.64914	254.03960	706.45123	115.18149	271.48962	661.39130	122.92630	314.18555	530.34125	152.42355	291.51575	524.32556	267.57343	453.34122	356.66342	172.21153	465.51886	312.28452	178.18571	397.73889	331.48099	162.31711	418.26398	291.03964	167.51122	513.06293	123.07224	176.37146	471.09235	122.09644	307.34921	584.50031	89.66110	262.58646	366.00583	49.96582	279.62546	346.18066	70.62875	229.90012	387.13431	48.13612	159.31175
427	3.55000	303.94608	1023.80450	361.84760	75.37946	984.21777	434.85202	88.99448	665.53741	443.63568	72.40279	625.48077	441.45618	31.87583	686.09503	439.47968	21.23771	643.59338	437.40616	18.59250	510.12610	427.69431	-3.88887	522.29114	290.35031	9.47976	401.89978	425.55655	-12.19730	367.21085	423.21484	-46.03407	430.00162	418.51349	-60.22562	389.43008	415.99179	-110.13174	106.93230	377.18488	-139.01610	117.19835	295.39572	-64.91312	55.63587	316.24542	-256.35510	89.08908	424.99432	-304.06729	113.57916	367.07001	-295.68741	95.90302	321.65744	311.16425	1013.95032	256.37860	95.14258	984.69659	146.55289	302.50473	722.02704	131.61896	309.78754	680.63745	133.36372	245.32735	704.92841	115.56152	261.27377	661.01758	123.56593	306.25635	529.06104	152.77623	283.40686	522.89276	267.79669	447.27090	357.12045	172.51726	459.62094	312.33694	178.57480	392.46802	331.40771	162.52425	413.87518	291.22101	167.64709	510.74692	123.20832	178.99709	469.45483	122.98529	307.35059	583.51178	91.94233	262.54684	365.68402	49.83977	279.78308	345.79276	70.45013	229.85158	386.91476	48.15830	159.28493
428	3.55833	293.79642	1022.37408	363.24216	64.52129	983.24084	434.74658	80.63438	665.43878	444.55115	64.05669	625.32758	442.48938	23.47534	685.95386	440.52393	12.86598	643.17480	438.57065	11.19231	511.09741	428.77722	-11.74546	523.21643	291.49756	3.79608	402.78079	426.26453	-17.48862	367.58783	423.94852	-52.24697	429.92514	419.44577	-65.79670	389.19205	416.91791	-111.74756	106.25529	377.58603	-141.19507	116.07233	296.33975	-65.77273	56.02516	316.26868	-257.61124	86.21881	425.73813	-305.39429	111.61696	369.33383	-297.11615	92.90481	322.69647	301.74234	1012.39520	257.71487	85.57811	982.97174	146.75183	293.28006	720.64160	132.15260	300.66205	679.18219	133.91502	236.04875	703.23059	116.04977	252.11885	659.52570	124.18960	297.80515	527.64984	153.14752	275.08429	521.28729	268.17844	441.84189	358.06262	172.65602	455.05646	313.22424	178.94371	386.86786	331.34497	162.83812	409.05417	291.35327	167.96921	508.90482	125.11293	179.00233	467.72391	124.02290	307.37897	582.41071	94.35572	262.52438	365.30655	49.70805	279.91464	345.33478	70.29716	229.81413	386.69739	48.24678	159.24770
429	3.56667	283.67834	1021.38007	364.54898	53.96833	982.61578	434.55933	72.10931	665.79114	445.67758	55.18995	625.30157	444.45157	14.97633	686.47150	441.90884	4.25992	642.91321	440.80878	3.28564	511.60504	430.17667	-20.13146	523.72009	292.95331	-2.67475	403.22812	427.34634	-23.41522	367.59503	425.02390	-58.99101	429.56119	420.80704	-72.05159	388.70932	418.20367	-114.33484	105.66103	378.11734	-143.72539	115.75146	297.16721	-66.98418	57.06310	316.73730	-259.23303	81.19129	427.02081	-308.28732	104.77486	369.82413	-299.81180	88.24545	323.76129	291.60413	1010.72559	259.05032	76.03227	981.30225	146.98248	283.56497	719.07458	132.66507	291.16623	677.66272	134.42349	226.49295	701.60278	116.56122	242.67488	657.72064	124.77003	288.77170	526.08813	153.51453	266.17603	519.70673	268.74768	435.41846	358.86411	172.88416	449.66208	314.18106	179.17805	380.79736	331.33136	163.16687	403.85956	291.62216	168.29134	506.83707	127.14766	179.13408	465.91348	125.24669	307.43951	581.20428	97.19153	262.46680	364.82367	49.47490	280.04968	344.76910	70.06905	229.81157	386.17957	48.10953	159.36598
430	3.57500	273.73996	1020.89398	365.65588	43.93819	982.17633	433.95639	63.19061	666.11749	446.97784	46.30918	625.50031	445.84656	5.98804	686.69531	443.47137	-4.64893	643.11884	442.45834	-5.19599	512.15497	432.03888	-26.61558	523.09760	296.28922	-9.57995	403.73853	428.80008	-29.84734	367.63916	426.43872	-66.36040	429.22446	422.40402	-78.68613	388.10657	419.62909	-117.12070	104.94382	378.54990	-146.55731	114.93912	298.04303	-68.72490	57.77707	317.03870	-261.49036	76.67258	427.36954	-310.83383	99.71722	370.69293	-302.23032	83.90878	324.21658	281.89694	1009.54510	260.09421	66.52538	979.78589	147.16066	273.31250	717.41876	133.12440	281.02252	676.03162	134.86328	215.89273	699.74469	117.19888	232.48021	655.94110	125.52770	278.81833	524.21509	153.82518	256.90720	517.90656	269.38477	428.45004	359.65506	173.07791	443.87317	315.19846	179.36586	374.15112	331.25406	163.46465	398.28339	291.84772	168.60190	504.57599	129.54504	179.32532	463.96320	127.03651	307.79593	579.67236	100.37575	262.65353	364.12982	49.27885	280.08530	343.93802	69.67986	229.93571	385.67773	48.15537	159.39264
431	3.58333	264.13504	1020.92163	366.45801	34.50477	982.41071	434.20035	54.11666	666.63074	449.10141	36.96233	625.73596	447.65753	-3.02532	687.43231	445.66891	-13.95661	643.43805	444.34677	-14.19959	512.99243	434.49695	-35.47580	523.80292	298.14795	-16.96735	404.35257	430.95111	-36.61114	367.91104	428.21683	-74.05748	429.06076	424.40582	-85.73443	387.75134	421.25629	-119.23560	104.50803	378.66129	-148.53021	114.15878	298.19998	-69.77745	58.29277	317.28094	-263.01331	73.74043	427.19342	-312.58817	96.14890	370.71036	-303.99115	80.55795	324.07797	272.13870	1008.55615	261.00012	57.05460	978.45490	147.42032	262.58069	715.64575	133.49535	270.38797	674.24689	135.20041	205.43474	697.97919	117.70705	221.81419	654.06354	126.00605	268.32257	522.49243	153.64352	246.95958	516.35852	269.94141	420.81683	360.48727	173.20341	437.16922	316.19028	181.53915	367.11319	331.14233	163.56126	392.18637	292.06589	168.76653	502.05841	132.15994	179.59979	461.21814	128.63872	308.10159	577.70740	104.04951	263.14139	363.31326	48.95440	280.07968	343.04855	69.35843	229.72209	385.43091	48.39112	159.22919
